HIERARCHY
ROOT Hip
{
  OFFSET 0.0 0.0 0.0
  CHANNELS 6 Xposition Yposition Zposition Xrotation Yrotation Zrotation
  JOINT LowerSpine
  {
    OFFSET 0.0 0.061367 -0.03653
    CHANNELS 3 Xrotation Yrotation Zrotation
    JOINT MiddleSpine
    {
      OFFSET 0.0 0.056002 0.002633
      CHANNELS 3 Xrotation Yrotation Zrotation
      JOINT Chest
      {
        OFFSET 0.0 0.069296 -0.013882
        CHANNELS 3 Xrotation Yrotation Zrotation
        JOINT Neck
        {
          OFFSET 0.0 0.156156 -0.002923
          CHANNELS 3 Xrotation Yrotation Zrotation
          JOINT Head
          {
            OFFSET 0.0 0.088183 0.023986
            CHANNELS 3 Xrotation Yrotation Zrotation
            End Site
            {
              OFFSET 1e-06 0.123215 0.003678
            }
          }
        }
        JOINT LClavicle
        {
          OFFSET 0.014189 0.150698 0.046467
          CHANNELS 3 Xrotation Yrotation Zrotation
          JOINT LShoulder
          {
            OFFSET 0.082893 0.021616 -0.034976
            CHANNELS 3 Xrotation Yrotation Zrotation
            JOINT LForearm
            {
              OFFSET 0.195645 -0.000695 -0.001695
              CHANNELS 3 Xrotation Yrotation Zrotation
              JOINT LHand
              {
                OFFSET 0.163209 0.000474 -0.000977
                CHANNELS 3 Xrotation Yrotation Zrotation
                End Site
                {
                  OFFSET 0.0 0.006864 0.0
                }
              }
            }
          }
        }
        JOINT RClavicle
        {
          OFFSET -0.014189 0.150698 0.046467
          CHANNELS 3 Xrotation Yrotation Zrotation
          JOINT RShoulder
          {
            OFFSET -0.082908 0.021619 -0.034982
            CHANNELS 3 Xrotation Yrotation Zrotation
            JOINT RForearm
            {
              OFFSET -0.195645 -0.000695 -0.001695
              CHANNELS 3 Xrotation Yrotation Zrotation
              JOINT RHand
              {
                OFFSET -0.163209 0.000474 -0.000977
                CHANNELS 3 Xrotation Yrotation Zrotation
                End Site
                {
                  OFFSET 0.0 0.006864 0.0
                }
              }
            }
          }
        }
      }
    }
  }
  JOINT RThigh
  {
    OFFSET -0.072558 0.02774 -0.005953
    CHANNELS 3 Xrotation Yrotation Zrotation
    JOINT RShin
    {
      OFFSET -0.005253 -0.285537 0.0
      CHANNELS 3 Xrotation Yrotation Zrotation
      JOINT RFoot
      {
        OFFSET 0.0 -0.28038 0.0
        CHANNELS 3 Xrotation Yrotation Zrotation
        JOINT RToe
        {
          OFFSET 0.0 -0.030816 0.064441
          CHANNELS 3 Xrotation Yrotation Zrotation
          End Site
          {
            OFFSET 0.0 0.0 0.043231
          }
        }
      }
    }
  }
  JOINT LThigh
  {
    OFFSET 0.072557 0.027741 -0.005953
    CHANNELS 3 Xrotation Yrotation Zrotation
    JOINT LShin
    {
      OFFSET 0.005253 -0.285539 0.0
      CHANNELS 3 Xrotation Yrotation Zrotation
      JOINT LFoot
      {
        OFFSET 0.0 -0.28038 0.0
        CHANNELS 3 Xrotation Yrotation Zrotation
        JOINT LToe
        {
          OFFSET 0.0 -0.030816 0.064441
          CHANNELS 3 Xrotation Yrotation Zrotation
          End Site
          {
            OFFSET 0.0 0.0 0.043231
          }
        }
      }
    }
  }
}
MOTION
Frames: 10
Frame Time: 0.03333333333333333
-0.017195 0.57454 0.003387 1.120857 3.59297 9.282679 -1.870937 8.747186 -10.587482 0.225954 0.275461 -15.816411 -0.756571 -1.934171 10.365916 5.910835 -14.218665 -1.868997 -7.310247 14.794379 3.229139 -8.282318 12.018134 -8.967654 16.608288 -17.845047 -43.884907 0.805204 -32.847359 -13.971279 -10.808783 -10.116065 7.723536 7.318087 6.013347 23.74143 7.835216 34.944763 48.706707 2.864037 28.222645 12.934731 14.528237 4.581142 6.568002 -6.722357 1.973523 -10.188437 10.104483 9.566792 9.547391 -8.663651 -2.351396 13.236377 5.910127 -13.182087 -8.026156 2.268771 16.44809 -7.911653 2.423316 16.533171 8.15993 1.220035 5.200356 -12.702909 -10.805703 12.28725 5.297385 
-0.016979 0.574797 0.004109 0.929324 3.779412 9.124701 -1.924275 8.696716 -10.508126 0.364937 0.224428 -15.751863 -0.586466 -1.814232 10.24373 5.771059 -14.158995 -1.8052 -7.201403 14.736581 3.248438 -8.229115 11.933787 -8.998084 16.695415 -18.128262 -43.748177 0.952679 -32.540638 -13.872396 -10.777168 -10.068468 7.69357 7.247174 6.102711 23.630051 7.877282 35.008205 48.696667 2.923298 28.635044 12.926549 14.461237 4.567407 6.540874 -6.435708 2.114726 -10.076739 10.043873 9.773718 9.40122 -8.627414 -2.236125 13.22277 5.90199 -13.11693 -7.999606 2.532667 16.423935 -7.777339 2.407806 16.433079 8.181224 1.080837 5.207021 -12.594388 -10.739611 12.240654 5.285258 
-0.016863 0.575031 0.004846 0.790274 3.976984 8.98656 -2.000782 8.661273 -10.43456 0.497138 0.168533 -15.719433 -0.426102 -1.742375 10.110982 5.638199 -14.120511 -1.740177 -7.103281 14.702831 3.27778 -8.186865 11.87226 -9.022047 16.801361 -18.375483 -43.578335 1.084825 -32.268841 -13.806559 -10.756398 -10.040191 7.673939 7.196105 6.198533 23.531359 7.937274 35.091747 48.658825 3.001819 29.059488 12.938519 14.412801 4.564918 6.528224 -6.18993 2.246524 -9.990008 9.984961 9.972247 9.273227 -8.605161 -2.152232 13.218352 5.900927 -13.074749 -7.982513 2.717302 16.421118 -7.643503 2.406574 16.388968 8.214782 0.968871 5.215286 -12.508678 -10.689634 12.212382 5.28522 
-0.016831 0.575261 0.005588 0.66447 4.165503 8.864285 -2.08858 8.633229 -10.361697 0.624342 0.108562 -15.700262 -0.269248 -1.692406 9.974878 5.515441 -14.093603 -1.672668 -7.002898 14.68033 3.310942 -8.154563 11.817032 -9.047696 16.925409 -18.602306 -43.397884 1.206532 -32.013046 -13.760559 -10.739471 -10.019747 7.660457 7.149642 6.309436 23.433708 8.011786 35.165413 48.607071 3.083066 29.511789 12.966807 14.370828 4.567642 6.5224 -5.943684 2.370551 -9.910959 9.908506 10.167612 9.146551 -8.593228 -2.080818 13.218677 5.903011 -13.043796 -7.968481 2.867515 16.415199 -7.509618 2.411615 16.35811 8.2513 0.878569 5.223933 -12.429604 -10.64223 12.193611 5.289054 
-0.016807 0.575515 0.006351 0.550139 4.338509 8.748522 -2.186358 8.605785 -10.281889 0.744898 0.040471 -15.685763 -0.119099 -1.661262 9.823274 5.407643 -14.067276 -1.602515 -6.898967 14.658433 3.346397 -8.12336 11.762868 -9.083755 17.069937 -18.813637 -43.210964 1.322001 -31.76622 -13.717649 -10.721028 -10.001222 7.649011 7.106614 6.427702 23.330853 8.106315 35.227871 48.546791 3.173367 30.002335 13.000198 14.327738 4.574272 6.518381 -5.698818 2.472532 -9.837556 9.829 10.344274 9.012489 -8.576969 -2.017041 13.21982 5.905117 -13.017437 -7.953516 2.988993 16.420605 -7.370557 2.419246 16.342819 8.27676 0.805481 5.233691 -12.345688 -10.596079 12.175857 5.292014 
-0.016737 0.575807 0.007155 0.449633 4.490688 8.62694 -2.294773 8.573863 -10.190712 0.859718 -0.040639 -15.668242 0.020328 -1.643858 9.650571 5.317531 -14.034269 -1.527182 -6.790583 14.63117 3.38381 -8.089353 11.705354 -9.13066 17.240736 -19.024626 -43.01646 1.446747 -31.515799 -13.667794 -10.699741 -9.980565 7.637569 7.065108 6.549166 23.214689 8.231616 35.291195 48.475494 3.28524 30.551546 13.032376 14.280108 4.583124 6.51345 -5.454812 2.544198 -9.769039 9.752372 10.491141 8.872929 -8.540517 -1.958359 13.221448 5.907887 -12.989982 -7.935515 3.088463 16.442505 -7.223823 2.415078 16.344765 8.292824 0.747368 5.23766 -12.250305 -10.548103 12.155167 5.29192 
-0.016606 0.576105 0.007968 0.371186 4.599833 8.519644 -2.430393 8.550179 -10.096887 0.972629 -0.119838 -15.655837 0.147027 -1.639547 9.499254 5.232398 -14.014104 -1.459575 -6.685292 14.619122 3.422772 -8.054948 11.666155 -9.210265 17.429264 -19.212818 -42.829323 1.561572 -31.268726 -13.650999 -10.682384 -9.969496 7.635964 7.053593 6.653458 23.111412 8.350447 35.337753 48.361027 3.324563 31.166771 13.095162 14.246047 4.593337 6.513448 -5.21376 2.610633 -9.727282 9.655569 10.635631 8.745934 -8.51476 -1.922999 13.230959 5.915788 -12.973901 -7.925001 3.176116 16.458456 -7.10614 2.378183 16.367897 8.317557 0.712228 5.261072 -12.154853 -10.512779 12.144732 5.296508 
-0.016339 0.576426 0.00873 0.325023 4.638996 8.442105 -2.603662 8.539736 -9.987296 1.065221 -0.172018 -15.648251 0.254025 -1.661627 9.350897 5.157609 -13.99754 -1.419081 -6.586926 14.616194 3.454395 -8.009614 11.658944 -9.33732 17.630039 -19.357883 -42.675594 1.647518 -31.043766 -13.660866 -10.670113 -9.962539 7.637648 7.084933 6.712693 23.03927 8.470193 35.319065 48.2332 3.260097 31.841557 13.18822 14.218429 4.600538 6.515165 -5.0309 2.66395 -9.69629 9.554151 10.759451 8.612658 -8.49619 -1.900185 13.252977 5.92923 -12.967785 -7.915184 3.247121 16.447527 -7.026015 2.329581 16.416115 8.307242 0.703667 5.326825 -12.050431 -10.484115 12.139183 5.299586 
-0.015939 0.576782 0.009618 0.307709 4.680386 8.385803 -2.800852 8.539604 -9.879367 1.136832 -0.214989 -15.651215 0.332997 -1.704737 9.218019 5.074429 -13.996111 -1.396569 -6.494554 14.621948 3.482473 -7.974762 11.664702 -9.481277 17.82411 -19.428562 -42.552616 1.707228 -30.84021 -13.682295 -10.659068 -9.961622 7.645246 7.135382 6.770733 22.973965 8.624519 35.225567 48.105831 3.1289 32.577591 13.32093 14.198643 4.607812 6.519666 -4.888336 2.692285 -9.696568 9.474803 10.868546 8.482312 -8.472489 -1.888431 13.284008 5.941434 -12.971313 -7.905911 3.303093 16.409464 -6.984988 2.285073 16.447498 8.289527 0.725981 5.385988 -11.95184 -10.456012 12.141098 5.304111 
-0.01569 0.577146 0.010561 0.308447 4.682911 8.377296 -2.991881 8.562195 -9.796223 1.200573 -0.243318 -15.681044 0.387922 -1.76982 9.121505 4.991877 -14.019066 -1.400939 -6.42625 14.650466 3.506829 -7.941149 11.701576 -9.614232 17.979717 -19.475035 -42.429848 1.76295 -30.676975 -13.726357 -10.65563 -9.975056 7.662015 7.20655 6.798153 22.937895 8.779396 35.139954 47.960476 2.995446 33.280937 13.499691 14.200476 4.615178 6.529534 -4.764779 2.681291 -9.728051 9.379807 10.938699 8.397517 -8.460244 -1.888744 13.326197 5.955266 -12.993446 -7.907687 3.339927 16.396793 -6.968542 2.245383 16.50111 8.270826 0.784266 5.450916 -11.876359 -10.441792 12.15927 5.31686 
